# xmcd
#
# Track frame offsets:
#	150
#	17806
#	30287
#	37657
#	50670
#	65749
#	77380
#	92499
#	113694
#	139322
#	157006
#
# Disc length: 2499 seconds
#
# Revision: 0
# Processed by: cddbd v1.5.2PL0 Copyright (c) Steve Scherf et al.
# Submitted via: EasyCDDAExtractor 10.0.6.1
#
DISCID=8009c10b
DTITLE=Kobus! - Swaarmetaal
DYEAR=2007
DGENRE=Swaarmetaal
TTITLE0=Honger
TTITLE1=Witman
TTITLE2=Tienerangs
TTITLE3=N.J.S.A.
TTITLE4=Huigelaar
TTITLE5=Doodstraf
TTITLE6=Die vlam
TTITLE7=Kinderhel
TTITLE8=Amen
TTITLE9=Swaarmetaal
TTITLE10=Jou ma se snoekpoes
EXTD=
EXTT0=
EXTT1=
EXTT2=
EXTT3=
EXTT4=
EXTT5=
EXTT6=
EXTT7=
EXTT8=
EXTT9=
EXTT10=
PLAYORDER=
